<mxfile host="app.diagrams.net" agent="Mozilla/5.0 (X11; Linux x86_64; rv:136.0) Gecko/20100101 Firefox/136.0" version="26.2.9">
  <diagram name="Page-1" id="rwP78x2AD61gx2P1AD5n">
    <mxGraphModel dx="1433" dy="851" grid="1" gridSize="10" guides="1" tooltips="1" connect="1" arrows="1" fold="1" page="1" pageScale="1" pageWidth="1169" pageHeight="827" math="0" shadow="0">
      <root>
        <mxCell id="0" />
        <mxCell id="1" parent="0" />
        <mxCell id="dHYDlYPpkqVMAwIP-mUt-1" value="&lt;div&gt;standalone&lt;/div&gt;&lt;div&gt;application&lt;/div&gt;&lt;div&gt;launcher&lt;/div&gt;" style="rounded=1;whiteSpace=wrap;html=1;fontFamily=Jetbrains Mono;fillColor=none;align=center;verticalAlign=top;spacingLeft=0;spacingTop=0;fontSize=12;fontColor=light-dark(#000000,#FFFFFF);fillOpacity=0;" vertex="1" parent="1">
          <mxGeometry x="210" y="310" width="685" height="280" as="geometry" />
        </mxCell>
        <mxCell id="dHYDlYPpkqVMAwIP-mUt-2" value="" style="edgeStyle=orthogonalEdgeStyle;rounded=0;orthogonalLoop=1;jettySize=auto;html=1;fontFamily=Jetbrains Mono;fontSize=12;fontColor=light-dark(#000000,#FFFFFF);fillOpacity=0;" edge="1" parent="1" source="dHYDlYPpkqVMAwIP-mUt-3" target="dHYDlYPpkqVMAwIP-mUt-10">
          <mxGeometry relative="1" as="geometry" />
        </mxCell>
        <mxCell id="dHYDlYPpkqVMAwIP-mUt-3" value="start" style="ellipse;whiteSpace=wrap;html=1;fontFamily=Jetbrains Mono;fontSize=12;fontColor=light-dark(#000000,#FFFFFF);fillOpacity=0;" vertex="1" parent="1">
          <mxGeometry x="235" y="380" width="120" height="80" as="geometry" />
        </mxCell>
        <mxCell id="dHYDlYPpkqVMAwIP-mUt-4" value="&lt;div&gt;yes&lt;/div&gt;" style="edgeStyle=orthogonalEdgeStyle;rounded=0;orthogonalLoop=1;jettySize=auto;html=1;fontFamily=Jetbrains Mono;fontSize=12;fontColor=light-dark(#000000,#FFFFFF);fillOpacity=0;" edge="1" parent="1" source="dHYDlYPpkqVMAwIP-mUt-6" target="dHYDlYPpkqVMAwIP-mUt-14">
          <mxGeometry x="0.3333" y="20" relative="1" as="geometry">
            <mxPoint as="offset" />
          </mxGeometry>
        </mxCell>
        <mxCell id="dHYDlYPpkqVMAwIP-mUt-5" value="&lt;div&gt;no&lt;/div&gt;" style="edgeStyle=orthogonalEdgeStyle;rounded=0;orthogonalLoop=1;jettySize=auto;html=1;entryX=0;entryY=0.5;entryDx=0;entryDy=0;fontFamily=Jetbrains Mono;fontSize=12;fontColor=light-dark(#000000,#FFFFFF);fillOpacity=0;" edge="1" parent="1" source="dHYDlYPpkqVMAwIP-mUt-6" target="dHYDlYPpkqVMAwIP-mUt-15">
          <mxGeometry x="-1" y="20" relative="1" as="geometry">
            <Array as="points">
              <mxPoint x="555" y="500" />
            </Array>
            <mxPoint as="offset" />
          </mxGeometry>
        </mxCell>
        <mxCell id="dHYDlYPpkqVMAwIP-mUt-6" value="&lt;div&gt;if&lt;/div&gt;&lt;div&gt;headless&lt;/div&gt;&lt;div&gt;mode&lt;/div&gt;&lt;div&gt;&lt;br&gt;&lt;/div&gt;" style="rhombus;whiteSpace=wrap;html=1;fontFamily=Jetbrains Mono;fontSize=12;fontColor=light-dark(#000000,#FFFFFF);fillOpacity=0;align=center;verticalAlign=middle;spacingTop=10;" vertex="1" parent="1">
          <mxGeometry x="515" y="380" width="80" height="80" as="geometry" />
        </mxCell>
        <mxCell id="dHYDlYPpkqVMAwIP-mUt-7" value="" style="edgeStyle=orthogonalEdgeStyle;rounded=0;orthogonalLoop=1;jettySize=auto;html=1;fontFamily=Jetbrains Mono;fontSize=12;fontColor=light-dark(#000000,#FFFFFF);fillOpacity=0;" edge="1" parent="1" source="dHYDlYPpkqVMAwIP-mUt-15" target="dHYDlYPpkqVMAwIP-mUt-8">
          <mxGeometry relative="1" as="geometry" />
        </mxCell>
        <mxCell id="dHYDlYPpkqVMAwIP-mUt-8" value="stop" style="ellipse;whiteSpace=wrap;html=1;fontFamily=Jetbrains Mono;fontSize=12;fontColor=light-dark(#000000,#FFFFFF);fillOpacity=0;" vertex="1" parent="1">
          <mxGeometry x="755" y="380" width="120" height="80" as="geometry" />
        </mxCell>
        <mxCell id="dHYDlYPpkqVMAwIP-mUt-9" value="" style="edgeStyle=orthogonalEdgeStyle;rounded=0;orthogonalLoop=1;jettySize=auto;html=1;fontFamily=Jetbrains Mono;fontSize=12;fontColor=light-dark(#000000,#FFFFFF);fillOpacity=0;" edge="1" parent="1" source="dHYDlYPpkqVMAwIP-mUt-10" target="dHYDlYPpkqVMAwIP-mUt-6">
          <mxGeometry relative="1" as="geometry" />
        </mxCell>
        <mxCell id="dHYDlYPpkqVMAwIP-mUt-10" value="&lt;div&gt;start&lt;/div&gt;&lt;div&gt;engine&lt;/div&gt;" style="rounded=0;whiteSpace=wrap;html=1;fontFamily=Jetbrains Mono;fontSize=12;fontColor=light-dark(#000000,#FFFFFF);fillOpacity=0;" vertex="1" parent="1">
          <mxGeometry x="375" y="390" width="120" height="60" as="geometry" />
        </mxCell>
        <mxCell id="dHYDlYPpkqVMAwIP-mUt-11" value="engine" style="endArrow=classic;html=1;rounded=0;entryX=0.5;entryY=1;entryDx=0;entryDy=0;fontFamily=Jetbrains Mono;dashed=1;fontSize=12;fontColor=light-dark(#000000,#FFFFFF);fillOpacity=0;" edge="1" parent="1" target="dHYDlYPpkqVMAwIP-mUt-15">
          <mxGeometry x="-1" y="-10" width="50" height="50" relative="1" as="geometry">
            <mxPoint x="675" y="550" as="sourcePoint" />
            <mxPoint x="785" y="220" as="targetPoint" />
            <mxPoint x="-10" y="10" as="offset" />
          </mxGeometry>
        </mxCell>
        <mxCell id="dHYDlYPpkqVMAwIP-mUt-12" value="engine" style="endArrow=classic;html=1;rounded=0;entryX=0.5;entryY=0;entryDx=0;entryDy=0;fontFamily=Jetbrains Mono;dashed=1;fontSize=12;fontColor=light-dark(#000000,#FFFFFF);fillOpacity=0;" edge="1" parent="1" target="dHYDlYPpkqVMAwIP-mUt-14">
          <mxGeometry x="-1" y="-10" width="50" height="50" relative="1" as="geometry">
            <mxPoint x="675" y="370" as="sourcePoint" />
            <mxPoint x="785" y="220" as="targetPoint" />
            <mxPoint x="10" y="-10" as="offset" />
          </mxGeometry>
        </mxCell>
        <mxCell id="dHYDlYPpkqVMAwIP-mUt-13" value="" style="edgeStyle=orthogonalEdgeStyle;rounded=0;orthogonalLoop=1;jettySize=auto;html=1;fontFamily=Jetbrains Mono;fontSize=12;fontColor=light-dark(#000000,#FFFFFF);fillOpacity=0;" edge="1" parent="1" source="dHYDlYPpkqVMAwIP-mUt-14" target="dHYDlYPpkqVMAwIP-mUt-8">
          <mxGeometry relative="1" as="geometry" />
        </mxCell>
        <mxCell id="dHYDlYPpkqVMAwIP-mUt-14" value="CLI" style="rounded=1;whiteSpace=wrap;html=1;fontFamily=Jetbrains Mono;fontSize=12;fontColor=light-dark(#000000,#FFFFFF);fillOpacity=0;" vertex="1" parent="1">
          <mxGeometry x="615" y="390" width="120" height="60" as="geometry" />
        </mxCell>
        <mxCell id="dHYDlYPpkqVMAwIP-mUt-15" value="GUI" style="rounded=1;whiteSpace=wrap;html=1;fontFamily=Jetbrains Mono;fontSize=12;fontColor=light-dark(#000000,#FFFFFF);fillOpacity=0;" vertex="1" parent="1">
          <mxGeometry x="615" y="470" width="120" height="60" as="geometry" />
        </mxCell>
      </root>
    </mxGraphModel>
  </diagram>
</mxfile>
